<?xml version="1.0" encoding="utf-8" standalone="no"?>
<!DOCTYPE svg PUBLIC "-//W3C//DTD SVG 1.1//EN"
  "http://www.w3.org/Graphics/SVG/1.1/DTD/svg11.dtd">
<svg xmlns:xlink="http://www.w3.org/1999/xlink" width="35.1pt" height="28.2672pt" viewBox="0 0 35.1 28.2672" xmlns="http://www.w3.org/2000/svg" version="1.1">
 <metadata>
  <rdf:RDF xmlns:dc="http://purl.org/dc/elements/1.1/" xmlns:cc="http://creativecommons.org/ns#" xmlns:rdf="http://www.w3.org/1999/02/22-rdf-syntax-ns#">
   <cc:Work>
    <dc:type rdf:resource="http://purl.org/dc/dcmitype/StillImage"/>
    <dc:date>2025-12-28T13:43:24.650708</dc:date>
    <dc:format>image/svg+xml</dc:format>
    <dc:creator>
     <cc:Agent>
      <dc:title>Matplotlib v3.10.8, https://matplotlib.org/</dc:title>
     </cc:Agent>
    </dc:creator>
   </cc:Work>
  </rdf:RDF>
 </metadata>
 <defs>
  <style type="text/css">*{stroke-linejoin: round; stroke-linecap: butt}</style>
 </defs>
 <g id="figure_1">
  <g id="patch_1">
   <path d="M 0 28.2672 
L 35.1 28.2672 
L 35.1 -0 
L 0 -0 
L 0 28.2672 
z
" style="fill: none"/>
  </g>
  <g id="axes_1">
   <g id="text_1">
    <!-- $O$ -->
    <g transform="translate(12.81 17.44485) scale(0.12 -0.12)">
     <defs>
      <path id="DejaVuSans-Oblique-4f" d="M 2919 4238 
Q 2400 4238 2003 3986 
Q 1606 3734 1313 3219 
Q 1125 2891 1026 2522 
Q 928 2153 928 1778 
Q 928 1128 1239 775 
Q 1550 422 2119 422 
Q 2631 422 3032 676 
Q 3434 931 3719 1434 
Q 3909 1772 4009 2142 
Q 4109 2513 4109 2881 
Q 4109 3528 3796 3883 
Q 3484 4238 2919 4238 
z
M 2100 -91 
Q 1241 -91 748 418 
Q 256 928 256 1813 
Q 256 2319 448 2847 
Q 641 3375 978 3788 
Q 1375 4272 1862 4511 
Q 2350 4750 2938 4750 
Q 3794 4750 4287 4245 
Q 4781 3741 4781 2869 
Q 4781 2331 4593 1812 
Q 4406 1294 4056 872 
Q 3656 384 3173 146 
Q 2691 -91 2100 -91 
z
" transform="scale(0.015625)"/>
     </defs>
     <use xlink:href="#DejaVuSans-Oblique-4f" transform="translate(0 0.78125)"/>
    </g>
   </g>
  </g>
 </g>
</svg>
